<svg width="495" height="58" viewBox="0 0 495 58" fill="none" xmlns="http://www.w3.org/2000/svg">
<path d="M47.6641 17.5422C53.0821 17.5422 57.2423 19.3078 60.1448 22.8392C63.0473 26.3222 64.4985 31.1596 64.4985 37.3516V52.1542C64.4985 53.5571 64.1841 54.5488 63.5552 55.1293C62.9747 55.7098 62.0072 56 60.6527 56H56.7344C55.3799 56 54.3882 55.7098 53.7593 55.1293C53.1788 54.5488 52.8886 53.5571 52.8886 52.1542V38.1498C52.8886 31.7643 50.5666 28.5716 45.9226 28.5716C43.5039 28.5716 41.6415 29.4423 40.3354 31.1838C39.0292 32.8769 38.3762 35.2473 38.3762 38.2949V52.1542C38.3762 53.5571 38.0618 54.5488 37.4329 55.1293C36.8524 55.7098 35.8849 56 34.5304 56H30.6121C29.2576 56 28.2659 55.7098 27.637 55.1293C27.0565 54.5488 26.7663 53.5571 26.7663 52.1542V38.1498C26.7663 31.7643 24.4443 28.5716 19.8003 28.5716C17.3816 28.5716 15.5192 29.4423 14.2131 31.1838C12.9069 32.8769 12.2539 35.2473 12.2539 38.2949V52.1542C12.2539 53.5087 11.9636 54.5004 11.3831 55.1293C10.8026 55.7098 9.81096 56 8.4081 56H4.48975C3.08689 56 2.0952 55.7098 1.51471 55.1293C0.934213 54.5004 0.643966 53.5087 0.643966 52.1542V20.88C0.643966 19.1385 1.39377 18.2678 2.89339 18.2678C3.90925 18.2678 5.04606 18.7032 6.3038 19.5739C7.56154 20.3963 8.67416 21.5814 9.64165 23.1294C11.0445 21.3396 12.8102 19.9609 14.9387 18.9934C17.1155 18.0259 19.3166 17.5422 21.5418 17.5422C27.4435 17.5422 31.7972 19.453 34.603 23.2746C36.1026 21.4847 38.0376 20.0818 40.4079 19.066C42.7783 18.0501 45.197 17.5422 47.6641 17.5422ZM107.973 37.3516C107.973 38.6577 107.707 39.601 107.175 40.1815C106.643 40.7136 105.676 40.9797 104.273 40.9797H81.7784C82.3106 42.8179 83.4957 44.3417 85.334 45.5511C87.1722 46.7121 89.5668 47.2926 92.5176 47.2926C95.1298 47.2926 97.5486 46.9781 99.7738 46.3493C101.999 45.7204 103.136 45.406 103.184 45.406C104.49 45.406 105.143 46.1074 105.143 47.5103V51.7188C105.143 53.3152 104.635 54.4278 103.62 55.0567C101.056 56.6531 96.9681 57.4512 91.3566 57.4512C85.3098 57.4512 80.2788 55.6614 76.2637 52.0817C72.297 48.5019 70.3136 43.6403 70.3136 37.4967C70.3136 31.9336 72.1035 27.2171 75.6832 23.3471C79.3113 19.4771 83.8344 17.5422 89.2523 17.5422C95.2508 17.5422 99.8706 19.332 103.112 22.9117C106.353 26.4431 107.973 31.2564 107.973 37.3516ZM89.3974 27.2655C87.269 27.2655 85.5275 27.846 84.173 29.007C82.8669 30.1196 82.0445 31.6192 81.7059 33.5058H96.7262C96.4843 31.6192 95.7345 30.1196 94.4768 29.007C93.2674 27.846 91.5743 27.2655 89.3974 27.2655ZM138.982 45.7688C140.143 45.7688 140.723 46.446 140.723 47.8005V52.0817C140.723 53.2426 140.554 54.0892 140.215 54.6213C139.925 55.1534 139.224 55.6372 138.111 56.0726C136.418 56.7498 134.193 57.0884 131.435 57.0884C121.857 57.0884 117.068 51.8882 117.068 41.4876V29.007H114.02C112.666 29.007 111.674 28.7167 111.045 28.1362C110.465 27.5557 110.175 26.564 110.175 25.1612V22.8392C110.175 21.4363 110.465 20.4446 111.045 19.8641C111.674 19.2836 112.666 18.9934 114.02 18.9934H117.068V13.4061C117.068 12.0516 117.358 11.0841 117.939 10.5036C118.519 9.87478 119.511 9.56034 120.914 9.56034H124.832C126.235 9.56034 127.227 9.87478 127.807 10.5036C128.388 11.0841 128.678 12.0516 128.678 13.4061V18.9934H136.079C137.434 18.9934 138.401 19.2836 138.982 19.8641C139.611 20.4446 139.925 21.4363 139.925 22.8392V25.1612C139.925 26.564 139.611 27.5557 138.982 28.1362C138.401 28.7167 137.434 29.007 136.079 29.007H128.678V40.1089C128.678 42.4793 129.089 44.1482 129.911 45.1157C130.782 46.0348 132.185 46.4944 134.12 46.4944C135.087 46.4944 136.055 46.3734 137.022 46.1316C138.038 45.8897 138.691 45.7688 138.982 45.7688ZM183.193 18.2678C184.692 18.2678 185.442 19.1385 185.442 20.88V54.1134C185.442 55.8549 184.692 56.7256 183.193 56.7256C182.177 56.7256 181.04 56.3144 179.782 55.4921C178.525 54.6213 177.412 53.4603 176.445 52.0091C175.138 53.5571 173.3 54.8632 170.93 55.9274C168.56 56.9433 165.996 57.4512 163.238 57.4512C157.578 57.4512 152.959 55.5888 149.379 51.864C145.799 48.0907 144.009 43.3017 144.009 37.4967C144.009 31.7885 145.799 27.0478 149.379 23.2746C153.007 19.453 157.627 17.5422 163.238 17.5422C165.996 17.5422 168.56 18.0743 170.93 19.1385C173.3 20.1544 175.138 21.4363 176.445 22.9843C177.412 21.5331 178.525 20.3963 179.782 19.5739C181.04 18.7032 182.177 18.2678 183.193 18.2678ZM158.377 44.3901C160.118 46.1316 162.271 47.0023 164.835 47.0023C167.399 47.0023 169.527 46.1316 171.22 44.3901C172.962 42.6002 173.832 40.3024 173.832 37.4967C173.832 34.691 172.962 32.4174 171.22 30.6759C169.527 28.886 167.399 27.9911 164.835 27.9911C162.271 27.9911 160.118 28.886 158.377 30.6759C156.635 32.4174 155.764 34.691 155.764 37.4967C155.764 40.3024 156.635 42.6002 158.377 44.3901Z" fill="#B18EF2"/>
<path d="M241.753 17.5422C247.171 17.5422 251.331 19.3078 254.234 22.8392C257.136 26.3222 258.588 31.1596 258.588 37.3516V52.1542C258.588 53.5571 258.273 54.5488 257.644 55.1293C257.064 55.7098 256.096 56 254.742 56H250.823C249.469 56 248.477 55.7098 247.848 55.1293C247.268 54.5488 246.978 53.5571 246.978 52.1542V38.1498C246.978 31.7643 244.656 28.5716 240.012 28.5716C237.593 28.5716 235.731 29.4423 234.424 31.1838C233.118 32.8769 232.465 35.2473 232.465 38.2949V52.1542C232.465 53.5571 232.151 54.5488 231.522 55.1293C230.941 55.7098 229.974 56 228.619 56H224.701C223.347 56 222.355 55.7098 221.726 55.1293C221.146 54.5488 220.855 53.5571 220.855 52.1542V38.1498C220.855 31.7643 218.533 28.5716 213.889 28.5716C211.471 28.5716 209.608 29.4423 208.302 31.1838C206.996 32.8769 206.343 35.2473 206.343 38.2949V52.1542C206.343 53.5087 206.053 54.5004 205.472 55.1293C204.892 55.7098 203.9 56 202.497 56H198.579C197.176 56 196.184 55.7098 195.604 55.1293C195.023 54.5004 194.733 53.5087 194.733 52.1542V20.88C194.733 19.1385 195.483 18.2678 196.982 18.2678C197.998 18.2678 199.135 18.7032 200.393 19.5739C201.651 20.3963 202.763 21.5814 203.731 23.1294C205.134 21.3396 206.899 19.9609 209.028 18.9934C211.205 18.0259 213.406 17.5422 215.631 17.5422C221.533 17.5422 225.886 19.453 228.692 23.2746C230.192 21.4847 232.127 20.0818 234.497 19.066C236.867 18.0501 239.286 17.5422 241.753 17.5422ZM299.74 51.7914C295.822 55.5646 290.912 57.4512 285.01 57.4512C279.109 57.4512 274.199 55.5646 270.28 51.7914C266.362 48.0182 264.403 43.2533 264.403 37.4967C264.403 31.6917 266.362 26.9268 270.28 23.202C274.199 19.4288 279.109 17.5422 285.01 17.5422C290.912 17.5422 295.822 19.4288 299.74 23.202C303.659 26.9268 305.618 31.6917 305.618 37.4967C305.618 43.2533 303.659 48.0182 299.74 51.7914ZM278.552 44.3901C280.149 46.1316 282.301 47.0023 285.01 47.0023C287.719 47.0023 289.872 46.1316 291.468 44.3901C293.065 42.6002 293.863 40.3024 293.863 37.4967C293.863 34.691 293.065 32.4174 291.468 30.6759C289.872 28.886 287.719 27.9911 285.01 27.9911C282.301 27.9911 280.149 28.886 278.552 30.6759C276.956 32.4174 276.158 34.691 276.158 37.4967C276.158 40.3024 276.956 42.6002 278.552 44.3901ZM336.669 18.1227C337.347 18.3645 337.782 18.6306 337.975 18.9208C338.217 19.2111 338.338 19.6706 338.338 20.2995V27.1929C338.338 28.3539 337.855 28.9344 336.887 28.9344C336.548 28.9344 335.944 28.886 335.073 28.7893C334.202 28.6441 333.356 28.5716 332.533 28.5716C329.776 28.5716 327.672 29.4665 326.22 31.2564C324.769 33.0462 324.044 35.6585 324.044 39.0931V52.1542C324.044 53.5571 323.729 54.5488 323.1 55.1293C322.52 55.7098 321.552 56 320.198 56H316.279C314.877 56 313.885 55.7098 313.304 55.1293C312.724 54.5004 312.434 53.5087 312.434 52.1542V20.88C312.434 19.1385 313.183 18.2678 314.683 18.2678C315.796 18.2678 317.005 18.7515 318.311 19.719C319.666 20.6865 320.827 21.9926 321.794 23.6374C324.164 19.5739 327.793 17.5422 332.678 17.5422C334.372 17.5422 335.702 17.7357 336.669 18.1227ZM371.857 1.79621C372.631 2.13484 373.139 2.57021 373.381 3.10233C373.671 3.58608 373.817 4.36007 373.817 5.42431V9.92315C373.817 11.1325 373.212 11.7372 372.002 11.7372C371.567 11.7372 370.745 11.6163 369.535 11.3744C368.374 11.0841 367.238 10.939 366.125 10.939C362.352 10.939 360.465 13.0917 360.465 17.397V18.9934H367.504C368.858 18.9934 369.826 19.2836 370.406 19.8641C371.035 20.4446 371.349 21.4363 371.349 22.8392V25.1612C371.349 26.564 371.035 27.5557 370.406 28.1362C369.826 28.7167 368.858 29.007 367.504 29.007H360.465V52.1542C360.465 53.5087 360.175 54.5004 359.594 55.1293C359.014 55.7098 358.022 56 356.619 56H352.701C351.298 56 350.306 55.7098 349.726 55.1293C349.145 54.5004 348.855 53.5087 348.855 52.1542V29.007H345.808C344.453 29.007 343.461 28.7167 342.833 28.1362C342.252 27.5557 341.962 26.564 341.962 25.1612V22.8392C341.962 21.4363 342.252 20.4446 342.833 19.8641C343.461 19.2836 344.453 18.9934 345.808 18.9934H348.855V18.1227C348.855 12.0275 350.379 7.57699 353.427 4.77126C356.523 1.91715 360.393 0.490099 365.037 0.490099C367.649 0.490099 369.922 0.925471 371.857 1.79621ZM408.442 51.7914C404.523 55.5646 399.613 57.4512 393.712 57.4512C387.81 57.4512 382.9 55.5646 378.981 51.7914C375.063 48.0182 373.104 43.2533 373.104 37.4967C373.104 31.6917 375.063 26.9268 378.981 23.202C382.9 19.4288 387.81 17.5422 393.712 17.5422C399.613 17.5422 404.523 19.4288 408.442 23.202C412.36 26.9268 414.319 31.6917 414.319 37.4967C414.319 43.2533 412.36 48.0182 408.442 51.7914ZM387.254 44.3901C388.85 46.1316 391.003 47.0023 393.712 47.0023C396.42 47.0023 398.573 46.1316 400.17 44.3901C401.766 42.6002 402.564 40.3024 402.564 37.4967C402.564 34.691 401.766 32.4174 400.17 30.6759C398.573 28.886 396.42 27.9911 393.712 27.9911C391.003 27.9911 388.85 28.886 387.254 30.6759C385.657 32.4174 384.859 34.691 384.859 37.4967C384.859 40.3024 385.657 42.6002 387.254 44.3901ZM434.849 57.2336C432.285 57.2336 429.746 56.9917 427.23 56.5079C424.715 56.0242 422.925 55.4921 421.86 54.9116C420.554 54.186 419.901 53.0975 419.901 51.6463V48.0907C419.901 46.3009 420.675 45.406 422.223 45.406C422.514 45.406 424.037 45.8413 426.795 46.7121C429.552 47.5344 432.575 47.9456 435.865 47.9456C438.719 47.9456 440.146 47.0023 440.146 45.1157C440.146 44.1966 439.759 43.5435 438.985 43.1565C438.211 42.7695 436.687 42.3584 434.414 41.923L432.092 41.4876C428.125 40.762 425.077 39.5768 422.949 37.9321C420.869 36.2873 419.829 33.7719 419.829 30.3856C419.829 25.8868 421.328 22.6699 424.328 20.7349C427.375 18.7515 431.269 17.7598 436.01 17.7598C441.283 17.7598 445.443 18.4855 448.491 19.9367C449.797 20.5656 450.45 21.654 450.45 23.202V26.7575C450.45 28.4506 449.676 29.2972 448.128 29.2972C447.596 29.2972 445.951 28.9344 443.194 28.2088C440.485 27.4348 438.042 27.0478 435.865 27.0478C433.011 27.0478 431.584 27.8701 431.584 29.5149C431.584 30.3373 431.947 30.9419 432.672 31.3289C433.398 31.6676 434.849 32.0304 437.026 32.4174L439.058 32.7802C443.218 33.5058 446.386 34.7152 448.563 36.4083C450.788 38.1014 451.901 40.9071 451.901 44.8255C451.901 49.1308 450.329 52.2752 447.185 54.2585C444.04 56.2419 439.928 57.2336 434.849 57.2336ZM494.026 37.3516C494.026 38.6577 493.76 39.601 493.227 40.1815C492.695 40.7136 491.728 40.9797 490.325 40.9797H467.831C468.363 42.8179 469.548 44.3417 471.386 45.5511C473.225 46.7121 475.619 47.2926 478.57 47.2926C481.182 47.2926 483.601 46.9781 485.826 46.3493C488.051 45.7204 489.188 45.406 489.237 45.406C490.543 45.406 491.196 46.1074 491.196 47.5103V51.7188C491.196 53.3152 490.688 54.4278 489.672 55.0567C487.108 56.6531 483.02 57.4512 477.409 57.4512C471.362 57.4512 466.331 55.6614 462.316 52.0817C458.349 48.5019 456.366 43.6403 456.366 37.4967C456.366 31.9336 458.156 27.2171 461.736 23.3471C465.364 19.4771 469.887 17.5422 475.305 17.5422C481.303 17.5422 485.923 19.332 489.164 22.9117C492.405 26.4431 494.026 31.2564 494.026 37.3516ZM475.45 27.2655C473.321 27.2655 471.58 27.846 470.225 29.007C468.919 30.1196 468.097 31.6192 467.758 33.5058H482.779C482.537 31.6192 481.787 30.1196 480.529 29.007C479.32 27.846 477.627 27.2655 475.45 27.2655Z" fill="#6EF575"/>
</svg>
